<svg xmlns="http://www.w3.org/2000/svg" xmlns:xlink="http://www.w3.org/1999/xlink" width="1800" zoomAndPan="magnify" viewBox="0 0 1350 374.999991" height="500" preserveAspectRatio="xMidYMid meet" version="1.0"><defs><g/><clipPath id="05e72c7ea6"><path d="M 102 114 L 373 114 L 373 354.832031 L 102 354.832031 Z M 102 114 " clip-rule="nonzero"/></clipPath><clipPath id="3f5b158fba"><rect x="0" width="803" y="0" height="178"/></clipPath><clipPath id="3637a7086f"><rect x="0" width="405" y="0" height="172"/></clipPath><clipPath id="416c441afc"><path d="M 123.261719 152 L 226 152 L 226 276 L 123.261719 276 Z M 123.261719 152 " clip-rule="nonzero"/></clipPath><clipPath id="67ab5496ed"><path d="M 209 152 L 311.511719 152 L 311.511719 289 L 209 289 Z M 209 152 " clip-rule="nonzero"/></clipPath><clipPath id="35fd01feee"><path d="M 170 100.902344 L 265 100.902344 L 265 148 L 170 148 Z M 170 100.902344 " clip-rule="nonzero"/></clipPath><clipPath id="c0585930f1"><rect x="0" width="267" y="0" height="57"/></clipPath></defs><path fill="#0d831a" d="M 88.71875 275.992188 C 81.179688 265.121094 75.4375 253.464844 71.21875 241.070312 C 66.855469 228.269531 64.246094 215.109375 63.523438 201.601562 C 61.1875 157.8125 75.113281 119.695312 104.257812 87.203125 C 122.125 67.28125 144.152344 53.363281 169.433594 44.570312 C 178.914062 41.273438 188.503906 38.453125 198.433594 36.839844 C 209.707031 35.011719 221.03125 34.582031 232.417969 35.394531 C 241.777344 36.058594 251.019531 37.421875 260.039062 40.054688 C 278.152344 45.339844 295.140625 52.957031 310.175781 64.550781 C 317.472656 70.183594 324.328125 76.292969 330.335938 83.300781 C 331.402344 84.546875 332.246094 86.035156 332.949219 87.527344 C 333.738281 89.203125 333.265625 90.8125 331.988281 92.132812 C 330.765625 93.398438 329.285156 93.359375 327.820312 92.671875 C 326.089844 91.855469 324.324219 91.050781 322.726562 90.011719 C 319.578125 87.957031 316.53125 85.75 313.449219 83.597656 C 303.980469 76.980469 294.207031 70.855469 283.53125 66.386719 C 275.066406 62.84375 266.222656 60.71875 256.953125 61.0625 C 247.269531 61.417969 238.167969 63.996094 229.738281 68.765625 C 228.175781 69.652344 226.703125 70.898438 225.574219 72.289062 C 223.59375 74.734375 224.300781 76.507812 227.355469 77.09375 C 228.898438 77.390625 230.523438 77.566406 232.085938 77.445312 C 237.664062 77.007812 243.234375 76.441406 248.804688 75.886719 C 254.628906 75.3125 260.453125 74.628906 266.292969 75.679688 C 273.828125 77.035156 280.425781 80.171875 285.554688 86.019531 C 287.519531 88.261719 288.789062 90.875 289.515625 93.757812 C 289.949219 95.488281 289.761719 97.089844 288.347656 98.351562 C 287.042969 99.515625 285.574219 99.320312 284.109375 98.75 C 282.710938 98.207031 281.289062 97.695312 279.953125 97.015625 C 273.144531 93.546875 265.921875 92.789062 258.480469 93.859375 C 247.238281 95.472656 236.007812 97.195312 224.78125 98.921875 C 213.65625 100.632812 203.152344 98.875 193.28125 93.445312 C 190.0625 91.675781 186.941406 89.695312 183.613281 88.164062 C 177.621094 85.414062 171.300781 83.996094 164.652344 84.175781 C 156.09375 84.402344 147.652344 85.277344 139.496094 88.070312 C 131.867188 90.683594 125.140625 94.789062 119.285156 100.308594 C 104.707031 114.050781 93.851562 130.351562 86.09375 148.761719 C 80.515625 162.007812 76.867188 175.800781 75.175781 190.050781 C 72.820312 209.898438 73.628906 229.585938 78.984375 248.957031 C 81.414062 257.746094 84.726562 266.222656 88.183594 274.652344 C 88.363281 275.097656 88.539062 275.542969 88.71875 275.992188 Z M 88.71875 275.992188 " fill-opacity="1" fill-rule="nonzero"/><g clip-path="url(#05e72c7ea6)"><path fill="#135f45" d="M 347.8125 114.894531 C 348.296875 115.625 348.796875 116.34375 349.261719 117.082031 C 359.871094 134.070312 366.953125 152.425781 370.316406 172.167969 C 372.972656 187.75 373.214844 203.375 371.109375 219.082031 C 364.777344 266.316406 335.304688 311.753906 288.691406 335.988281 C 272.730469 344.285156 255.910156 350.160156 238.1875 353.230469 C 232.445312 354.222656 226.578125 354.75 220.75 354.910156 C 213.578125 355.101562 206.371094 354.957031 199.210938 354.472656 C 188.164062 353.726562 177.492188 351.078125 167.007812 347.484375 C 151.945312 342.324219 137.972656 335.210938 125.324219 325.507812 C 118.332031 320.152344 111.949219 314.152344 106.003906 307.675781 C 105.109375 306.699219 104.277344 305.617188 103.636719 304.460938 C 103.128906 303.539062 102.765625 302.449219 102.667969 301.402344 C 102.398438 298.480469 104.410156 296.671875 107.21875 297.519531 C 109.183594 298.109375 111.078125 299.121094 112.816406 300.234375 C 116.191406 302.394531 119.445312 304.746094 122.730469 307.046875 C 131.777344 313.386719 141.191406 319.097656 151.316406 323.566406 C 159.109375 327.007812 167.300781 329.023438 175.8125 329.203125 C 186.8125 329.4375 197.160156 326.734375 206.667969 321.152344 C 208.203125 320.25 209.535156 318.839844 210.632812 317.414062 C 211.902344 315.757812 211.339844 314.15625 209.363281 313.472656 C 208.125 313.046875 206.742188 312.785156 205.4375 312.835938 C 201.851562 312.96875 198.273438 313.296875 194.691406 313.5625 C 188.28125 314.046875 181.875 314.75 175.457031 314.980469 C 167.113281 315.285156 159.703125 312.5 153.226562 307.261719 C 150.171875 304.792969 147.890625 301.734375 146.726562 297.945312 C 146.410156 296.921875 146.203125 295.824219 146.199219 294.757812 C 146.1875 292.503906 147.617188 291.074219 149.839844 291.316406 C 151.378906 291.484375 153.003906 291.902344 154.351562 292.640625 C 162.117188 296.910156 170.371094 297.507812 178.921875 296.210938 C 190.3125 294.480469 201.671875 292.542969 213.097656 291.09375 C 223.304688 289.796875 233.066406 291.683594 242.125 296.710938 C 243.953125 297.726562 245.734375 298.816406 247.539062 299.863281 C 254.628906 303.964844 262.203125 306.082031 270.460938 306.003906 C 279.628906 305.914062 288.632812 305.023438 297.300781 301.863281 C 304.535156 299.226562 310.964844 295.25 316.550781 289.945312 C 337.519531 270.035156 350.664062 245.671875 357.460938 217.746094 C 361.402344 201.554688 362.574219 185.105469 361.457031 168.496094 C 360.46875 153.890625 357.089844 139.820312 351.742188 126.207031 C 350.460938 122.945312 349.183594 119.679688 347.910156 116.414062 C 347.742188 115.976562 347.613281 115.519531 347.464844 115.070312 C 347.582031 115.015625 347.699219 114.957031 347.8125 114.894531 Z M 347.8125 114.894531 " fill-opacity="1" fill-rule="nonzero"/></g><g transform="matrix(1, 0, 0, 1, 440, 23)"><g clip-path="url(#3f5b158fba)"><g fill="#327039" fill-opacity="1"><g transform="translate(4.701534, 140.882501)"><g><path d="M 71.6875 1.734375 C 64.257812 1.734375 56.890625 0.488281 49.578125 -2 C 42.273438 -4.488281 35.578125 -8.316406 29.484375 -13.484375 C 23.398438 -18.648438 18.53125 -25.203125 14.875 -33.140625 C 11.21875 -41.085938 9.390625 -50.515625 9.390625 -61.421875 C 9.390625 -70.003906 10.894531 -78.035156 13.90625 -85.515625 C 16.925781 -93.003906 21.191406 -99.5625 26.703125 -105.1875 C 32.210938 -110.8125 38.796875 -115.21875 46.453125 -118.40625 C 54.109375 -121.59375 62.519531 -123.1875 71.6875 -123.1875 C 79 -123.1875 86.335938 -121.910156 93.703125 -119.359375 C 101.066406 -116.804688 107.765625 -112.945312 113.796875 -107.78125 C 119.828125 -102.625 124.671875 -96.101562 128.328125 -88.21875 C 131.984375 -80.332031 133.8125 -71.050781 133.8125 -60.375 C 133.8125 -49.820312 131.984375 -40.628906 128.328125 -32.796875 C 124.671875 -24.960938 119.796875 -18.492188 113.703125 -13.390625 C 107.617188 -8.285156 100.921875 -4.488281 93.609375 -2 C 86.304688 0.488281 79 1.734375 71.6875 1.734375 Z M 27.484375 -72.03125 C 28.066406 -63.332031 29.835938 -54.894531 32.796875 -46.71875 C 35.753906 -38.539062 39.609375 -31.234375 44.359375 -24.796875 C 49.117188 -18.359375 54.660156 -13.222656 60.984375 -9.390625 C 67.304688 -5.566406 74.179688 -3.65625 81.609375 -3.65625 C 90.535156 -3.65625 97.609375 -5.65625 102.828125 -9.65625 C 108.046875 -13.65625 111.726562 -18.898438 113.875 -25.390625 C 116.03125 -31.890625 116.816406 -38.96875 116.234375 -46.625 C 115.535156 -55.90625 113.796875 -64.835938 111.015625 -73.421875 C 108.234375 -82.003906 104.488281 -89.71875 99.78125 -96.5625 C 95.082031 -103.414062 89.601562 -108.8125 83.34375 -112.75 C 77.082031 -116.695312 70.179688 -118.671875 62.640625 -118.671875 C 54.753906 -118.671875 48.082031 -116.753906 42.625 -112.921875 C 37.175781 -109.097656 33.144531 -103.675781 30.53125 -96.65625 C 27.925781 -89.632812 26.910156 -81.425781 27.484375 -72.03125 Z M 27.484375 -72.03125 "/></g></g></g><g fill="#327039" fill-opacity="1"><g transform="translate(147.340785, 140.882501)"><g><path d="M 8.171875 0 L 8.171875 -2.4375 C 11.078125 -3.363281 12.960938 -5.304688 13.828125 -8.265625 C 14.703125 -11.222656 15.140625 -15.832031 15.140625 -22.09375 L 15.140625 -99.703125 C 15.140625 -105.960938 14.703125 -110.570312 13.828125 -113.53125 C 12.960938 -116.488281 11.078125 -118.429688 8.171875 -119.359375 L 8.171875 -121.796875 L 44.71875 -121.796875 C 54.695312 -121.796875 62.84375 -120.722656 69.15625 -118.578125 C 75.476562 -116.429688 80.410156 -113.644531 83.953125 -110.21875 C 87.492188 -106.800781 89.957031 -103.117188 91.34375 -99.171875 C 92.738281 -95.234375 93.4375 -91.523438 93.4375 -88.046875 C 93.4375 -80.847656 91.640625 -74.175781 88.046875 -68.03125 C 84.453125 -61.882812 78.882812 -56.984375 71.34375 -53.328125 C 63.800781 -49.671875 54.054688 -47.84375 42.109375 -47.84375 L 33.578125 -47.84375 L 33.578125 -22.09375 C 33.578125 -15.832031 34.007812 -11.222656 34.875 -8.265625 C 35.75 -5.304688 37.640625 -3.363281 40.546875 -2.4375 L 40.546875 0 Z M 33.578125 -50.640625 L 41.234375 -50.640625 C 52.609375 -50.640625 60.875 -53.65625 66.03125 -59.6875 C 71.195312 -65.71875 73.78125 -73.660156 73.78125 -83.515625 C 73.78125 -87.234375 73.253906 -91.148438 72.203125 -95.265625 C 71.160156 -99.378906 69.332031 -103.234375 66.71875 -106.828125 C 64.113281 -110.429688 60.546875 -113.363281 56.015625 -115.625 C 51.492188 -117.882812 45.8125 -119.015625 38.96875 -119.015625 C 37 -119.015625 35.203125 -118.898438 33.578125 -118.671875 Z M 33.578125 -50.640625 "/></g></g></g><g fill="#327039" fill-opacity="1"><g transform="translate(244.579027, 140.882501)"><g><path d="M 32.71875 0 L 32.71875 -2.4375 C 35.613281 -3.363281 37.492188 -5.304688 38.359375 -8.265625 C 39.234375 -11.222656 39.671875 -15.832031 39.671875 -22.09375 L 39.671875 -118.671875 L 34.28125 -118.671875 C 26.507812 -118.671875 20.414062 -117.363281 16 -114.75 C 11.59375 -112.144531 7.769531 -107.359375 4.53125 -100.390625 L 2.4375 -100.75 L 3.484375 -121.796875 L 94.140625 -121.796875 L 95.171875 -100.75 L 93.09375 -100.390625 C 89.84375 -107.359375 86.015625 -112.144531 81.609375 -114.75 C 77.203125 -117.363281 71.113281 -118.671875 63.34375 -118.671875 L 58.296875 -118.671875 L 58.296875 -22.09375 C 58.296875 -15.832031 58.726562 -11.222656 59.59375 -8.265625 C 60.46875 -5.304688 62.351562 -3.363281 65.25 -2.4375 L 65.25 0 Z M 32.71875 0 "/></g></g></g><g fill="#327039" fill-opacity="1"><g transform="translate(341.991252, 140.882501)"><g><path d="M 8.171875 0 L 8.171875 -2.4375 C 11.078125 -3.363281 12.960938 -5.304688 13.828125 -8.265625 C 14.703125 -11.222656 15.140625 -15.832031 15.140625 -22.09375 L 15.140625 -99.703125 C 15.140625 -105.960938 14.703125 -110.570312 13.828125 -113.53125 C 12.960938 -116.488281 11.078125 -118.429688 8.171875 -119.359375 L 8.171875 -121.796875 L 40.546875 -121.796875 L 40.546875 -119.359375 C 37.640625 -118.429688 35.75 -116.488281 34.875 -113.53125 C 34.007812 -110.570312 33.578125 -105.960938 33.578125 -99.703125 L 33.578125 -22.09375 C 33.578125 -15.832031 34.007812 -11.222656 34.875 -8.265625 C 35.75 -5.304688 37.640625 -3.363281 40.546875 -2.4375 L 40.546875 0 Z M 8.171875 0 "/></g></g></g><g fill="#327039" fill-opacity="1"><g transform="translate(390.697364, 140.882501)"><g><path d="M 7.3125 0 L 7.3125 -2.4375 C 10.207031 -3.363281 12.085938 -5.304688 12.953125 -8.265625 C 13.828125 -11.222656 14.265625 -15.832031 14.265625 -22.09375 L 14.265625 -89.265625 C 14.265625 -96.335938 13.828125 -101.90625 12.953125 -105.96875 C 12.085938 -110.03125 10.785156 -113.046875 9.046875 -115.015625 C 7.304688 -116.984375 5.101562 -118.429688 2.4375 -119.359375 L 2.4375 -121.796875 L 28.53125 -121.796875 L 71.515625 -50.453125 L 112.40625 -121.796875 L 137.109375 -121.796875 L 137.109375 -119.359375 C 134.441406 -118.429688 132.238281 -116.984375 130.5 -115.015625 C 128.757812 -113.046875 127.453125 -110.03125 126.578125 -105.96875 C 125.710938 -101.90625 125.28125 -96.335938 125.28125 -89.265625 L 125.28125 -22.09375 C 125.28125 -15.832031 125.710938 -11.222656 126.578125 -8.265625 C 127.453125 -5.304688 129.335938 -3.363281 132.234375 -2.4375 L 132.234375 0 L 99.875 0 L 99.875 -2.4375 C 102.769531 -3.363281 104.65625 -5.304688 105.53125 -8.265625 C 106.40625 -11.222656 106.84375 -15.832031 106.84375 -22.09375 L 106.84375 -106.3125 L 65.078125 -33.0625 L 61.078125 -33.0625 L 17.40625 -104.75 L 17.40625 -32.53125 C 17.40625 -25.457031 17.867188 -19.890625 18.796875 -15.828125 C 19.722656 -11.773438 21.171875 -8.757812 23.140625 -6.78125 C 25.109375 -4.8125 27.601562 -3.363281 30.625 -2.4375 L 30.625 0 Z M 7.3125 0 "/></g></g></g><g fill="#327039" fill-opacity="1"><g transform="translate(535.945881, 140.882501)"><g><path d="M 64.203125 1.734375 C 57.941406 1.734375 51.796875 0.925781 45.765625 -0.6875 C 39.734375 -2.3125 34.28125 -5.007812 29.40625 -8.78125 C 24.53125 -12.550781 20.640625 -17.566406 17.734375 -23.828125 C 14.835938 -30.097656 13.390625 -37.929688 13.390625 -47.328125 L 13.390625 -99.703125 C 13.390625 -105.960938 12.953125 -110.570312 12.078125 -113.53125 C 11.210938 -116.488281 9.332031 -118.429688 6.4375 -119.359375 L 6.4375 -121.796875 L 38.796875 -121.796875 L 38.796875 -119.359375 C 35.898438 -118.429688 34.015625 -116.488281 33.140625 -113.53125 C 32.273438 -110.570312 31.84375 -105.960938 31.84375 -99.703125 L 31.84375 -45.9375 C 31.84375 -35.382812 33.46875 -26.914062 36.71875 -20.53125 C 39.96875 -14.15625 44.546875 -9.546875 50.453125 -6.703125 C 56.367188 -3.859375 63.273438 -2.4375 71.171875 -2.4375 C 74.878906 -2.4375 78.675781 -3.1875 82.5625 -4.6875 C 86.445312 -6.195312 90.070312 -8.660156 93.4375 -12.078125 C 96.800781 -15.503906 99.523438 -20.0625 101.609375 -25.75 C 103.703125 -31.4375 104.75 -38.515625 104.75 -46.984375 L 104.75 -89.265625 C 104.75 -96.335938 104.285156 -101.90625 103.359375 -105.96875 C 102.429688 -110.03125 100.976562 -113.046875 99 -115.015625 C 97.03125 -116.984375 94.539062 -118.429688 91.53125 -119.359375 L 91.53125 -121.796875 L 114.84375 -121.796875 L 114.84375 -119.359375 C 111.9375 -118.429688 110.046875 -116.488281 109.171875 -113.53125 C 108.304688 -110.570312 107.875 -105.960938 107.875 -99.703125 L 107.875 -47.328125 C 107.875 -35.722656 105.988281 -26.296875 102.21875 -19.046875 C 98.445312 -11.796875 93.285156 -6.519531 86.734375 -3.21875 C 80.179688 0.0820312 72.671875 1.734375 64.203125 1.734375 Z M 64.203125 1.734375 "/></g></g></g><g fill="#327039" fill-opacity="1"><g transform="translate(655.449763, 140.882501)"><g><path d="M 7.3125 0 L 7.3125 -2.4375 C 10.207031 -3.363281 12.085938 -5.304688 12.953125 -8.265625 C 13.828125 -11.222656 14.265625 -15.832031 14.265625 -22.09375 L 14.265625 -89.265625 C 14.265625 -96.335938 13.828125 -101.90625 12.953125 -105.96875 C 12.085938 -110.03125 10.785156 -113.046875 9.046875 -115.015625 C 7.304688 -116.984375 5.101562 -118.429688 2.4375 -119.359375 L 2.4375 -121.796875 L 28.53125 -121.796875 L 71.515625 -50.453125 L 112.40625 -121.796875 L 137.109375 -121.796875 L 137.109375 -119.359375 C 134.441406 -118.429688 132.238281 -116.984375 130.5 -115.015625 C 128.757812 -113.046875 127.453125 -110.03125 126.578125 -105.96875 C 125.710938 -101.90625 125.28125 -96.335938 125.28125 -89.265625 L 125.28125 -22.09375 C 125.28125 -15.832031 125.710938 -11.222656 126.578125 -8.265625 C 127.453125 -5.304688 129.335938 -3.363281 132.234375 -2.4375 L 132.234375 0 L 99.875 0 L 99.875 -2.4375 C 102.769531 -3.363281 104.65625 -5.304688 105.53125 -8.265625 C 106.40625 -11.222656 106.84375 -15.832031 106.84375 -22.09375 L 106.84375 -106.3125 L 65.078125 -33.0625 L 61.078125 -33.0625 L 17.40625 -104.75 L 17.40625 -32.53125 C 17.40625 -25.457031 17.867188 -19.890625 18.796875 -15.828125 C 19.722656 -11.773438 21.171875 -8.757812 23.140625 -6.78125 C 25.109375 -4.8125 27.601562 -3.363281 30.625 -2.4375 L 30.625 0 Z M 7.3125 0 "/></g></g></g></g></g><g transform="matrix(1, 0, 0, 1, 447, 203)"><g clip-path="url(#3637a7086f)"><g fill="#327039" fill-opacity="1"><g transform="translate(3.343682, 122.685623)"><g><path d="M 30.234375 -74.328125 L 3.984375 -74.328125 L 3.984375 -79.453125 L 62.515625 -79.453125 L 62.515625 -74.328125 L 36.25 -74.328125 L 36.25 0 L 30.234375 0 Z M 30.234375 -74.328125 "/></g></g></g><g fill="#327039" fill-opacity="1"><g transform="translate(69.804593, 122.685623)"><g><path d="M 47.515625 1.703125 C 39.703125 1.703125 32.671875 -0.0195312 26.421875 -3.46875 C 20.171875 -6.914062 15.242188 -11.78125 11.640625 -18.0625 C 8.046875 -24.351562 6.25 -31.554688 6.25 -39.671875 C 6.25 -47.773438 8.046875 -54.96875 11.640625 -61.25 C 15.242188 -67.539062 20.171875 -72.429688 26.421875 -75.921875 C 32.671875 -79.410156 39.703125 -81.15625 47.515625 -81.15625 C 55.316406 -81.15625 62.359375 -79.410156 68.640625 -75.921875 C 74.929688 -72.429688 79.875 -67.539062 83.46875 -61.25 C 87.070312 -54.96875 88.875 -47.773438 88.875 -39.671875 C 88.875 -31.554688 87.070312 -24.351562 83.46875 -18.0625 C 79.875 -11.78125 74.929688 -6.914062 68.640625 -3.46875 C 62.359375 -0.0195312 55.316406 1.703125 47.515625 1.703125 Z M 47.515625 -3.640625 C 54.023438 -3.640625 59.988281 -5.113281 65.40625 -8.0625 C 70.820312 -11.019531 75.101562 -15.226562 78.25 -20.6875 C 81.394531 -26.144531 82.96875 -32.472656 82.96875 -39.671875 C 82.96875 -46.785156 81.414062 -53.070312 78.3125 -58.53125 C 75.207031 -63.988281 70.984375 -68.210938 65.640625 -71.203125 C 60.296875 -74.191406 54.328125 -75.6875 47.734375 -75.6875 C 41.140625 -75.6875 35.132812 -74.207031 29.71875 -71.25 C 24.300781 -68.300781 20.019531 -64.097656 16.875 -58.640625 C 13.726562 -53.191406 12.15625 -46.867188 12.15625 -39.671875 C 12.15625 -32.472656 13.726562 -26.144531 16.875 -20.6875 C 20.019531 -15.226562 24.28125 -11.019531 29.65625 -8.0625 C 35.039062 -5.113281 40.992188 -3.640625 47.515625 -3.640625 Z M 47.515625 -3.640625 "/></g></g></g><g fill="#327039" fill-opacity="1"><g transform="translate(164.894811, 122.685623)"><g><path d="M 38.53125 1.703125 C 28.445312 1.703125 20.828125 -0.8125 15.671875 -5.84375 C 10.523438 -10.882812 7.953125 -17.988281 7.953125 -27.15625 L 7.953125 -79.453125 L 13.984375 -79.453125 L 13.984375 -26.25 C 13.984375 -18.601562 16.175781 -12.921875 20.5625 -9.203125 C 24.957031 -5.492188 30.945312 -3.640625 38.53125 -3.640625 C 46.101562 -3.640625 52.101562 -5.492188 56.53125 -9.203125 C 60.96875 -12.921875 63.1875 -18.601562 63.1875 -26.25 L 63.1875 -79.453125 L 69.21875 -79.453125 L 69.21875 -27.15625 C 69.21875 -17.988281 66.617188 -10.882812 61.421875 -5.84375 C 56.234375 -0.8125 48.601562 1.703125 38.53125 1.703125 Z M 38.53125 1.703125 "/></g></g></g><g fill="#327039" fill-opacity="1"><g transform="translate(242.034862, 122.685623)"><g><path d="M 47.625 1.703125 C 39.738281 1.703125 32.648438 -0.0195312 26.359375 -3.46875 C 20.078125 -6.914062 15.15625 -11.765625 11.59375 -18.015625 C 8.03125 -24.265625 6.25 -31.484375 6.25 -39.671875 C 6.25 -47.847656 8.03125 -55.082031 11.59375 -61.375 C 15.15625 -67.664062 20.078125 -72.535156 26.359375 -75.984375 C 32.648438 -79.429688 39.738281 -81.15625 47.625 -81.15625 C 58.53125 -81.15625 67.582031 -78.160156 74.78125 -72.171875 L 74.78125 -66.140625 C 67.882812 -72.503906 58.945312 -75.6875 47.96875 -75.6875 C 41.144531 -75.6875 35.023438 -74.207031 29.609375 -71.25 C 24.191406 -68.300781 19.925781 -64.097656 16.8125 -58.640625 C 13.707031 -53.191406 12.15625 -46.867188 12.15625 -39.671875 C 12.15625 -32.390625 13.726562 -26.039062 16.875 -20.625 C 20.019531 -15.207031 24.320312 -11.019531 29.78125 -8.0625 C 35.238281 -5.113281 41.300781 -3.640625 47.96875 -3.640625 C 53.71875 -3.640625 58.863281 -4.414062 63.40625 -5.96875 C 67.957031 -7.519531 72.09375 -10.113281 75.8125 -13.75 L 75.8125 -7.734375 C 69.0625 -1.441406 59.664062 1.703125 47.625 1.703125 Z M 47.625 1.703125 "/></g></g></g><g fill="#327039" fill-opacity="1"><g transform="translate(324.060055, 122.685623)"><g><path d="M 8.53125 -79.453125 L 14.546875 -79.453125 L 14.546875 -43.078125 L 62.859375 -43.078125 L 62.859375 -79.453125 L 68.875 -79.453125 L 68.875 0 L 62.859375 0 L 62.859375 -37.96875 L 14.546875 -37.96875 L 14.546875 0 L 8.53125 0 Z M 8.53125 -79.453125 "/></g></g></g></g></g><g clip-path="url(#416c441afc)"><path fill="#135f45" d="M 204.265625 275.820312 L 123.261719 194.859375 L 165.863281 152.214844 L 165.863281 173.753906 L 225.714844 173.753906 L 204.265625 193.574219 Z M 204.265625 275.820312 " fill-opacity="1" fill-rule="evenodd"/></g><g clip-path="url(#67ab5496ed)"><path fill="#00bf63" d="M 268.535156 152.214844 L 311.136719 194.859375 L 217.222656 288.777344 L 209.925781 281.484375 L 230.132812 262.5625 L 230.132812 173.753906 L 268.535156 173.753906 Z M 268.535156 152.214844 " fill-opacity="1" fill-rule="evenodd"/></g><g clip-path="url(#35fd01feee)"><path fill="#135f45" d="M 217.222656 100.902344 L 264.15625 147.882812 L 170.242188 147.882812 Z M 217.222656 100.902344 " fill-opacity="1" fill-rule="evenodd"/></g><g transform="matrix(1, 0, 0, 1, 873, 279)"><g clip-path="url(#c0585930f1)"><g fill="#327039" fill-opacity="1"><g transform="translate(0.678826, 41.618976)"><g><path d="M 21.9375 -26.046875 L 21.9375 -26.71875 C 21.9375 -27.195312 22.03125 -27.539062 22.21875 -27.75 C 22.40625 -27.957031 22.648438 -28.0625 22.953125 -28.0625 C 23.253906 -28.0625 23.492188 -27.957031 23.671875 -27.75 C 23.859375 -27.539062 23.953125 -27.195312 23.953125 -26.71875 L 23.953125 -21.578125 C 23.953125 -21.097656 23.859375 -20.753906 23.671875 -20.546875 C 23.492188 -20.335938 23.253906 -20.234375 22.953125 -20.234375 C 22.660156 -20.234375 22.421875 -20.328125 22.234375 -20.515625 C 22.054688 -20.710938 21.957031 -21.03125 21.9375 -21.46875 C 21.863281 -22.800781 21.171875 -24.003906 19.859375 -25.078125 C 18.554688 -26.148438 16.851562 -26.6875 14.75 -26.6875 C 12.53125 -26.6875 10.765625 -26.113281 9.453125 -24.96875 C 8.140625 -23.832031 7.484375 -22.488281 7.484375 -20.9375 C 7.484375 -20.132812 7.664062 -19.40625 8.03125 -18.75 C 8.394531 -18.09375 8.878906 -17.5625 9.484375 -17.15625 C 10.097656 -16.75 10.785156 -16.421875 11.546875 -16.171875 C 12.316406 -15.921875 13.519531 -15.660156 15.15625 -15.390625 C 17.882812 -14.941406 19.769531 -14.488281 20.8125 -14.03125 C 22.207031 -13.40625 23.257812 -12.539062 23.96875 -11.4375 C 24.675781 -10.332031 25.03125 -9.03125 25.03125 -7.53125 C 25.03125 -5.226562 24.109375 -3.265625 22.265625 -1.640625 C 20.429688 -0.015625 17.957031 0.796875 14.84375 0.796875 C 11.34375 0.796875 8.546875 -0.300781 6.453125 -2.5 L 6.453125 -1.34375 C 6.453125 -0.863281 6.359375 -0.519531 6.171875 -0.3125 C 5.992188 -0.101562 5.75 0 5.4375 0 C 5.15625 0 4.914062 -0.101562 4.71875 -0.3125 C 4.53125 -0.519531 4.4375 -0.863281 4.4375 -1.34375 L 4.4375 -6.90625 C 4.4375 -7.40625 4.523438 -7.753906 4.703125 -7.953125 C 4.890625 -8.160156 5.132812 -8.265625 5.4375 -8.265625 C 5.726562 -8.265625 5.960938 -8.171875 6.140625 -7.984375 C 6.328125 -7.796875 6.429688 -7.484375 6.453125 -7.046875 C 6.523438 -5.578125 7.304688 -4.238281 8.796875 -3.03125 C 10.296875 -1.820312 12.3125 -1.21875 14.84375 -1.21875 C 17.363281 -1.21875 19.351562 -1.847656 20.8125 -3.109375 C 22.28125 -4.378906 23.015625 -5.875 23.015625 -7.59375 C 23.015625 -8.65625 22.734375 -9.597656 22.171875 -10.421875 C 21.617188 -11.242188 20.789062 -11.894531 19.6875 -12.375 C 18.914062 -12.707031 17.316406 -13.082031 14.890625 -13.5 C 11.546875 -14.0625 9.140625 -14.914062 7.671875 -16.0625 C 6.203125 -17.21875 5.46875 -18.859375 5.46875 -20.984375 C 5.46875 -23.085938 6.3125 -24.898438 8 -26.421875 C 9.6875 -27.941406 11.910156 -28.703125 14.671875 -28.703125 C 17.484375 -28.703125 19.90625 -27.816406 21.9375 -26.046875 Z M 21.9375 -26.046875 "/></g></g></g><g fill="#327039" fill-opacity="1"><g transform="translate(30.148904, 41.618976)"><g><path d="M 6.828125 -2.015625 L 6.828125 -26.046875 L 5.125 -26.046875 C 4.644531 -26.046875 4.300781 -26.132812 4.09375 -26.3125 C 3.882812 -26.5 3.78125 -26.742188 3.78125 -27.046875 C 3.78125 -27.347656 3.882812 -27.59375 4.09375 -27.78125 C 4.300781 -27.96875 4.644531 -28.0625 5.125 -28.0625 L 15.96875 -28.0625 C 17.664062 -28.0625 19.210938 -27.707031 20.609375 -27 C 22.003906 -26.300781 23.070312 -25.503906 23.8125 -24.609375 C 25.070312 -23.085938 26.03125 -21.476562 26.6875 -19.78125 C 27.15625 -18.550781 27.390625 -17.097656 27.390625 -15.421875 L 27.390625 -12.640625 C 27.390625 -10.578125 26.929688 -8.578125 26.015625 -6.640625 C 25.109375 -4.703125 23.59375 -3.015625 21.46875 -1.578125 C 19.882812 -0.523438 18.050781 0 15.96875 0 L 5.125 0 C 4.644531 0 4.300781 -0.09375 4.09375 -0.28125 C 3.882812 -0.476562 3.78125 -0.71875 3.78125 -1 C 3.78125 -1.3125 3.882812 -1.554688 4.09375 -1.734375 C 4.300781 -1.921875 4.644531 -2.015625 5.125 -2.015625 Z M 8.84375 -2.015625 L 16.15625 -2.015625 C 17.851562 -2.015625 19.441406 -2.566406 20.921875 -3.671875 C 22.398438 -4.773438 23.507812 -6.097656 24.25 -7.640625 C 25 -9.179688 25.375 -10.703125 25.375 -12.203125 L 25.375 -15.84375 C 25.375 -17.09375 25.171875 -18.207031 24.765625 -19.1875 C 24.191406 -20.601562 23.378906 -21.953125 22.328125 -23.234375 C 21.753906 -23.941406 20.90625 -24.585938 19.78125 -25.171875 C 18.664062 -25.753906 17.457031 -26.046875 16.15625 -26.046875 L 8.84375 -26.046875 Z M 8.84375 -2.015625 "/></g></g></g><g fill="#327039" fill-opacity="1"><g transform="translate(59.618982, 41.618976)"><g><path d="M 24.609375 0 L 22.015625 0 L 7.171875 -25.109375 L 7.171875 -2.015625 L 10.890625 -2.015625 C 11.378906 -2.015625 11.726562 -1.921875 11.9375 -1.734375 C 12.144531 -1.554688 12.25 -1.3125 12.25 -1 C 12.25 -0.71875 12.144531 -0.476562 11.9375 -0.28125 C 11.726562 -0.09375 11.378906 0 10.890625 0 L 3.484375 0 C 2.984375 0 2.628906 -0.09375 2.421875 -0.28125 C 2.210938 -0.476562 2.109375 -0.71875 2.109375 -1 C 2.109375 -1.3125 2.210938 -1.554688 2.421875 -1.734375 C 2.628906 -1.921875 2.984375 -2.015625 3.484375 -2.015625 L 5.15625 -2.015625 L 5.15625 -26.046875 L 2.453125 -26.046875 C 1.960938 -26.046875 1.613281 -26.132812 1.40625 -26.3125 C 1.207031 -26.5 1.109375 -26.742188 1.109375 -27.046875 C 1.109375 -27.347656 1.207031 -27.59375 1.40625 -27.78125 C 1.613281 -27.96875 1.960938 -28.0625 2.453125 -28.0625 L 7.71875 -28.0625 L 22.59375 -2.90625 L 22.59375 -26.046875 L 18.875 -26.046875 C 18.394531 -26.046875 18.050781 -26.132812 17.84375 -26.3125 C 17.632812 -26.5 17.53125 -26.742188 17.53125 -27.046875 C 17.53125 -27.347656 17.628906 -27.59375 17.828125 -27.78125 C 18.023438 -27.96875 18.375 -28.0625 18.875 -28.0625 L 26.3125 -28.0625 C 26.789062 -28.0625 27.128906 -27.96875 27.328125 -27.78125 C 27.535156 -27.59375 27.640625 -27.347656 27.640625 -27.046875 C 27.640625 -26.742188 27.535156 -26.5 27.328125 -26.3125 C 27.128906 -26.132812 26.789062 -26.046875 26.3125 -26.046875 L 24.609375 -26.046875 Z M 24.609375 0 "/></g></g></g><g fill="#327039" fill-opacity="1"><g transform="translate(89.08906, 41.618976)"><g><path d="M 14.3125 -5.78125 L 15.171875 -5.78125 C 16.066406 -5.78125 16.832031 -5.460938 17.46875 -4.828125 C 18.113281 -4.203125 18.4375 -3.441406 18.4375 -2.546875 C 18.4375 -1.617188 18.113281 -0.84375 17.46875 -0.21875 C 16.820312 0.40625 16.054688 0.71875 15.171875 0.71875 L 14.3125 0.71875 C 13.414062 0.71875 12.644531 0.40625 12 -0.21875 C 11.363281 -0.851562 11.046875 -1.617188 11.046875 -2.515625 C 11.046875 -3.441406 11.367188 -4.21875 12.015625 -4.84375 C 12.671875 -5.46875 13.4375 -5.78125 14.3125 -5.78125 Z M 14.3125 -5.78125 "/></g></g></g><g fill="#327039" fill-opacity="1"><g transform="translate(118.559138, 41.618976)"><g/></g></g><g fill="#327039" fill-opacity="1"><g transform="translate(148.029216, 41.618976)"><g><path d="M 6.140625 -2.015625 L 6.140625 -26.046875 L 3.421875 -26.046875 C 2.941406 -26.046875 2.597656 -26.132812 2.390625 -26.3125 C 2.191406 -26.5 2.09375 -26.742188 2.09375 -27.046875 C 2.09375 -27.347656 2.191406 -27.59375 2.390625 -27.78125 C 2.597656 -27.96875 2.941406 -28.0625 3.421875 -28.0625 L 16.09375 -28.0625 C 18.601562 -28.0625 20.644531 -27.335938 22.21875 -25.890625 C 23.789062 -24.441406 24.578125 -22.742188 24.578125 -20.796875 C 24.578125 -18.328125 23.257812 -16.332031 20.625 -14.8125 C 22.71875 -14.0625 24.25 -13.0625 25.21875 -11.8125 C 26.195312 -10.570312 26.6875 -9.203125 26.6875 -7.703125 C 26.6875 -6.359375 26.363281 -5.128906 25.71875 -4.015625 C 25.082031 -2.898438 24.101562 -1.953125 22.78125 -1.171875 C 21.46875 -0.390625 20.035156 0 18.484375 0 L 3.421875 0 C 2.941406 0 2.597656 -0.09375 2.390625 -0.28125 C 2.191406 -0.476562 2.09375 -0.71875 2.09375 -1 C 2.09375 -1.3125 2.191406 -1.554688 2.390625 -1.734375 C 2.597656 -1.921875 2.941406 -2.015625 3.421875 -2.015625 Z M 8.15625 -15.59375 L 15.28125 -15.59375 C 16.789062 -15.59375 18.179688 -15.867188 19.453125 -16.421875 C 20.421875 -16.867188 21.175781 -17.515625 21.71875 -18.359375 C 22.269531 -19.210938 22.546875 -20.078125 22.546875 -20.953125 C 22.546875 -22.222656 21.953125 -23.390625 20.765625 -24.453125 C 19.578125 -25.515625 18.035156 -26.046875 16.140625 -26.046875 L 8.15625 -26.046875 Z M 8.15625 -2.015625 L 18.34375 -2.015625 C 19.632812 -2.015625 20.757812 -2.300781 21.71875 -2.875 C 22.675781 -3.445312 23.40625 -4.15625 23.90625 -5 C 24.40625 -5.851562 24.65625 -6.738281 24.65625 -7.65625 C 24.65625 -8.675781 24.296875 -9.664062 23.578125 -10.625 C 22.867188 -11.582031 21.882812 -12.304688 20.625 -12.796875 C 19.363281 -13.296875 17.617188 -13.546875 15.390625 -13.546875 L 8.15625 -13.546875 Z M 8.15625 -2.015625 "/></g></g></g><g fill="#327039" fill-opacity="1"><g transform="translate(177.499294, 41.618976)"><g><path d="M 21.5625 -13.578125 L 8.203125 -13.578125 L 8.203125 -2.015625 L 10.90625 -2.015625 C 11.382812 -2.015625 11.726562 -1.921875 11.9375 -1.734375 C 12.144531 -1.554688 12.25 -1.3125 12.25 -1 C 12.25 -0.71875 12.144531 -0.476562 11.9375 -0.28125 C 11.726562 -0.09375 11.382812 0 10.90625 0 L 3.90625 0 C 3.425781 0 3.082031 -0.09375 2.875 -0.28125 C 2.664062 -0.476562 2.5625 -0.71875 2.5625 -1 C 2.5625 -1.3125 2.664062 -1.554688 2.875 -1.734375 C 3.082031 -1.921875 3.425781 -2.015625 3.90625 -2.015625 L 6.1875 -2.015625 L 6.1875 -26.046875 L 4.9375 -26.046875 C 4.445312 -26.046875 4.097656 -26.132812 3.890625 -26.3125 C 3.679688 -26.5 3.578125 -26.742188 3.578125 -27.046875 C 3.578125 -27.347656 3.679688 -27.59375 3.890625 -27.78125 C 4.097656 -27.96875 4.445312 -28.0625 4.9375 -28.0625 L 10.90625 -28.0625 C 11.382812 -28.0625 11.726562 -27.96875 11.9375 -27.78125 C 12.144531 -27.59375 12.25 -27.347656 12.25 -27.046875 C 12.25 -26.742188 12.144531 -26.5 11.9375 -26.3125 C 11.726562 -26.132812 11.382812 -26.046875 10.90625 -26.046875 L 8.203125 -26.046875 L 8.203125 -15.59375 L 21.5625 -15.59375 L 21.5625 -26.046875 L 18.875 -26.046875 C 18.394531 -26.046875 18.050781 -26.132812 17.84375 -26.3125 C 17.632812 -26.5 17.53125 -26.742188 17.53125 -27.046875 C 17.53125 -27.347656 17.628906 -27.59375 17.828125 -27.78125 C 18.023438 -27.96875 18.375 -28.0625 18.875 -28.0625 L 24.84375 -28.0625 C 25.332031 -28.0625 25.679688 -27.96875 25.890625 -27.78125 C 26.097656 -27.59375 26.203125 -27.347656 26.203125 -27.046875 C 26.203125 -26.742188 26.097656 -26.5 25.890625 -26.3125 C 25.679688 -26.132812 25.332031 -26.046875 24.84375 -26.046875 L 23.59375 -26.046875 L 23.59375 -2.015625 L 25.875 -2.015625 C 26.351562 -2.015625 26.695312 -1.921875 26.90625 -1.734375 C 27.113281 -1.554688 27.21875 -1.3125 27.21875 -1 C 27.21875 -0.71875 27.113281 -0.476562 26.90625 -0.28125 C 26.695312 -0.09375 26.351562 0 25.875 0 L 18.875 0 C 18.394531 0 18.050781 -0.09375 17.84375 -0.28125 C 17.632812 -0.476562 17.53125 -0.71875 17.53125 -1 C 17.53125 -1.3125 17.628906 -1.554688 17.828125 -1.734375 C 18.023438 -1.921875 18.375 -2.015625 18.875 -2.015625 L 21.5625 -2.015625 Z M 21.5625 -13.578125 "/></g></g></g><g fill="#327039" fill-opacity="1"><g transform="translate(206.969372, 41.618976)"><g><path d="M 6.828125 -2.015625 L 6.828125 -26.046875 L 5.125 -26.046875 C 4.644531 -26.046875 4.300781 -26.132812 4.09375 -26.3125 C 3.882812 -26.5 3.78125 -26.742188 3.78125 -27.046875 C 3.78125 -27.347656 3.882812 -27.59375 4.09375 -27.78125 C 4.300781 -27.96875 4.644531 -28.0625 5.125 -28.0625 L 15.96875 -28.0625 C 17.664062 -28.0625 19.210938 -27.707031 20.609375 -27 C 22.003906 -26.300781 23.070312 -25.503906 23.8125 -24.609375 C 25.070312 -23.085938 26.03125 -21.476562 26.6875 -19.78125 C 27.15625 -18.550781 27.390625 -17.097656 27.390625 -15.421875 L 27.390625 -12.640625 C 27.390625 -10.578125 26.929688 -8.578125 26.015625 -6.640625 C 25.109375 -4.703125 23.59375 -3.015625 21.46875 -1.578125 C 19.882812 -0.523438 18.050781 0 15.96875 0 L 5.125 0 C 4.644531 0 4.300781 -0.09375 4.09375 -0.28125 C 3.882812 -0.476562 3.78125 -0.71875 3.78125 -1 C 3.78125 -1.3125 3.882812 -1.554688 4.09375 -1.734375 C 4.300781 -1.921875 4.644531 -2.015625 5.125 -2.015625 Z M 8.84375 -2.015625 L 16.15625 -2.015625 C 17.851562 -2.015625 19.441406 -2.566406 20.921875 -3.671875 C 22.398438 -4.773438 23.507812 -6.097656 24.25 -7.640625 C 25 -9.179688 25.375 -10.703125 25.375 -12.203125 L 25.375 -15.84375 C 25.375 -17.09375 25.171875 -18.207031 24.765625 -19.1875 C 24.191406 -20.601562 23.378906 -21.953125 22.328125 -23.234375 C 21.753906 -23.941406 20.90625 -24.585938 19.78125 -25.171875 C 18.664062 -25.753906 17.457031 -26.046875 16.15625 -26.046875 L 8.84375 -26.046875 Z M 8.84375 -2.015625 "/></g></g></g><g fill="#327039" fill-opacity="1"><g transform="translate(236.43945, 41.618976)"><g><path d="M 14.3125 -5.78125 L 15.171875 -5.78125 C 16.066406 -5.78125 16.832031 -5.460938 17.46875 -4.828125 C 18.113281 -4.203125 18.4375 -3.441406 18.4375 -2.546875 C 18.4375 -1.617188 18.113281 -0.84375 17.46875 -0.21875 C 16.820312 0.40625 16.054688 0.71875 15.171875 0.71875 L 14.3125 0.71875 C 13.414062 0.71875 12.644531 0.40625 12 -0.21875 C 11.363281 -0.851562 11.046875 -1.617188 11.046875 -2.515625 C 11.046875 -3.441406 11.367188 -4.21875 12.015625 -4.84375 C 12.671875 -5.46875 13.4375 -5.78125 14.3125 -5.78125 Z M 14.3125 -5.78125 "/></g></g></g></g></g></svg>